<?xml version="1.0" encoding="UTF-8"?>
<svg version="1.1" xmlns="http://www.w3.org/2000/svg" width="4000" height="1473">
<path d="M0 0 C127.05 0 254.1 0 385 0 C385 7.92 385 15.84 385 24 C408.1 24 431.2 24 455 24 C455 197.25 455 370.5 455 549 C327.95 549 200.9 549 70 549 C70 535.8 70 522.6 70 509 C46.9 509 23.8 509 0 509 C0 341.03 0 173.06 0 0 Z M385 43 C385 196.78 385 350.56 385 509 C286.99 509 188.98 509 88 509 C88 516.26 88 523.52 88 531 C203.17 531 318.34 531 437 531 C437 369.96 437 208.92 437 43 C419.84 43 402.68 43 385 43 Z " fill="#A80202" transform="translate(50,66)"/>
<path d="M0 0 C47.23125 -0.04125 94.4625 -0.0825 143.125 -0.125 C158.01254395 -0.14320801 172.90008789 -0.16141602 188.23876953 -0.18017578 C206.48413086 -0.18920898 206.48413086 -0.18920898 215.03829956 -0.19088745 C220.98484906 -0.19274312 226.93136044 -0.20003928 232.87789917 -0.21115112 C239.75387835 -0.22398049 246.62982131 -0.2296491 253.50581252 -0.2268899 C257.01495251 -0.22569718 260.52401182 -0.22744098 264.03313661 -0.23843026 C284.43453561 -0.29291293 304.578897 0.45298077 324.6875 4.125 C325.84830078 4.33600342 327.00910156 4.54700684 328.20507812 4.7644043 C348.15559389 8.58251096 367.40762953 14.86888252 386 23 C386.70705078 23.30341309 387.41410156 23.60682617 388.14257812 23.91943359 C418.13846511 36.89384503 444.53806719 56.45484737 468 79 C468.73259033 79.69971924 468.73259033 79.69971924 469.47998047 80.41357422 C476.21232352 86.87454301 482.26148615 93.64954406 488 101 C488.72292236 101.90830566 488.72292236 101.90830566 489.46044922 102.83496094 C508.05417466 126.20893676 522.77731014 151.90522821 533 180 C533.27005859 180.72928711 533.54011719 181.45857422 533.81835938 182.20996094 C540.99131475 201.77176146 545.61009944 222.31530106 548 243 C548.0942627 243.76650879 548.18852539 244.53301758 548.28564453 245.32275391 C549.30385301 254.72706589 549.24370313 264.17680928 549.25 273.625 C549.25101212 274.99143143 549.25101212 274.99143143 549.25204468 276.38546753 C549.2347621 291.11103377 548.56039755 305.4692399 546 320 C545.75056641 321.4555127 545.75056641 321.4555127 545.49609375 322.94042969 C541.327371 346.57091181 534.18539574 369.28356837 524 391 C523.61086426 391.83724609 523.22172852 392.67449219 522.82080078 393.53710938 C514.70983503 410.82898392 504.90009056 427.04360203 493 442 C492.26136719 442.93070312 491.52273438 443.86140625 490.76171875 444.8203125 C476.91838688 461.98700038 461.55726767 478.72497838 443.69042969 491.75830078 C441.94280379 493.04201328 440.22467945 494.35908559 438.5078125 495.68359375 C423.79180613 506.91775029 407.74907633 516.15631872 391 524 C389.81277344 524.56976562 388.62554688 525.13953125 387.40234375 525.7265625 C370.53598619 533.61026434 352.49815949 539.24370199 334.375 543.375 C333.40199951 543.60131104 332.42899902 543.82762207 331.42651367 544.06079102 C310.49191716 548.555577 289.42984366 549.44647676 268.0865479 549.34821819 C264.42101136 549.3348572 260.75548291 549.33951879 257.08992863 549.34167194 C250.01551631 549.3432493 242.94122078 549.32957173 235.86683825 549.31016796 C227.66190647 549.28834853 219.45704226 549.28617185 211.2520752 549.28381348 C189.64719863 549.26813884 168.04234749 549.22625504 146.4375 549.1875 C73.9509375 549.0946875 73.9509375 549.0946875 0 549 C0 367.83 0 186.66 0 0 Z M301.89282227 54.11401367 C300.85066055 54.35814499 299.80849884 54.60227631 298.73475647 54.85380554 C297.6067009 55.1224794 296.47864532 55.39115326 295.31640625 55.66796875 C294.15052475 55.94465897 292.98464325 56.22134918 291.78343201 56.50642395 C289.30901751 57.09552895 286.83507632 57.68662495 284.36157227 58.27954102 C280.61111359 59.1758816 276.85746662 60.05787151 273.10351562 60.93945312 C270.69509995 61.51473588 268.28689016 62.0908814 265.87890625 62.66796875 C264.76906876 62.92652145 263.65923126 63.18507416 262.51576233 63.45146179 C243.4460258 68.08100874 228.73487145 76.86482563 218.2762146 93.74398804 C216.21357631 97.39019037 214.76671538 101.20837601 213.3125 105.12890625 C212.80960701 106.45205841 212.80960701 106.45205841 212.29655457 107.80194092 C211.18979608 110.71920308 210.0950095 113.6408098 209 116.5625 C208.21483449 118.6379493 207.4287627 120.71305595 206.6418457 122.7878418 C204.96533045 127.21067146 203.29306814 131.63507705 201.62353516 136.06054688 C197.62588388 146.64733216 193.57771893 157.21484272 189.53573608 167.78475952 C188.19389294 171.29577249 186.85402256 174.80753147 185.51489258 178.31958008 C181.6210336 188.53101688 177.72081385 198.73969167 173.78125 208.93359375 C172.86588855 211.30715971 171.95081429 213.68083621 171.03579712 216.05453491 C170.21198532 218.18662991 169.38285768 220.31660372 168.5534668 222.4465332 C168.0705325 223.69862703 167.58784816 224.9508173 167.10546875 226.203125 C166.69449951 227.26176758 166.28353027 228.32041016 165.86010742 229.41113281 C164.84235604 232.01983032 164.84235604 232.01983032 165 235 C155.97805483 227.99405209 147.10480627 220.82828593 138.30078125 213.55078125 C128.74920714 205.65622293 119.13004627 197.85446938 109.35864258 190.23364258 C104.67507907 186.56545713 100.08196362 182.7940055 95.5 179 C85.52785667 170.74614406 75.40704823 162.70121569 65 155 C63.39439161 156.60560839 63.69405399 158.42416678 63.51928711 160.64892578 C63.39927589 162.13780807 63.39927589 162.13780807 63.27684021 163.6567688 C63.19450638 164.74198822 63.11217255 165.82720764 63.02734375 166.9453125 C62.93997452 168.06251678 62.85260529 169.17972107 62.7625885 170.33078003 C62.57794502 172.70976273 62.39568294 175.08893125 62.21557617 177.46826172 C61.94232821 181.06150835 61.65824174 184.65377819 61.37304688 188.24609375 C58.59135358 223.6033871 58.59135358 223.6033871 74.5625 254.5625 C78.95473296 259.25764558 83.99632117 263.09219668 89.08984375 266.98046875 C93.31569841 270.21402615 97.40754961 273.60016786 101.5 277 C106.61408182 281.23721855 111.7588851 285.42088748 117 289.5 C122.98720458 294.1597874 128.84093469 298.96932515 134.68359375 303.80859375 C139.0742164 307.43701066 143.50519168 311.00165771 148 314.5 C154.07346324 319.22781925 160.0183371 324.10159828 165.94946289 329.00634766 C171.25596066 333.39370047 176.60732615 337.71893353 182 342 C183.87550605 343.49936722 185.75051023 344.99936244 187.625 346.5 C188.46289062 347.1703125 189.30078125 347.840625 190.1640625 348.53125 C191.07285156 349.25828125 191.07285156 349.25828125 192 350 C189.30786505 352.84723579 186.6463419 355.03084442 183.32421875 357.1015625 C182.42171387 357.66883057 181.51920898 358.23609863 180.58935547 358.82055664 C179.63174316 359.41602295 178.67413086 360.01148926 177.6875 360.625 C175.68280769 361.88546944 173.67890255 363.14719168 171.67578125 364.41015625 C170.21132568 365.33272217 170.21132568 365.33272217 168.71728516 366.27392578 C165.2348356 368.48604782 161.79667699 370.75785047 158.375 373.0625 C152.78277299 376.82229817 147.15318316 380.51994585 141.5 384.1875 C140.66251221 384.73100098 139.82502441 385.27450195 138.9621582 385.83447266 C137.21427271 386.9685478 135.46630536 388.10249677 133.71826172 389.23632812 C118.07474115 399.3862107 102.49175037 409.61972858 87 420 C90.69970741 423.19536858 94.88195016 424.77515739 99.359375 426.58203125 C100.18141418 426.91869308 101.00345337 427.25535492 101.85040283 427.60221863 C103.59430066 428.31510789 105.33934784 429.02519113 107.08544922 429.73266602 C109.70145507 430.79282672 112.31389171 431.86138485 114.92578125 432.93164062 C122.92030037 436.19745318 130.9343246 439.40370999 139.015625 442.44921875 C139.66714539 442.69549515 140.31866577 442.94177155 140.9899292 443.19551086 C154.21412675 448.12147487 170.10180394 447.80253036 183 442 C193.36936846 436.9049276 202.8300079 430.20918414 212.390625 423.765625 C217.95470173 420.01870662 223.56395321 416.34437894 229.1875 412.6875 C230.1355249 412.07060303 231.0835498 411.45370605 232.06030273 410.81811523 C234.023674 409.54055328 235.98713578 408.26313044 237.95068359 406.98583984 C243.30563159 403.49847819 248.65241898 399.9986433 254 396.5 C265.0684553 389.26075609 276.14188863 382.02920623 287.22314453 374.80957031 C289.11764523 373.5749968 291.01183789 372.33995048 292.90576172 371.10449219 C295.70734855 369.27698104 298.50981677 367.45082912 301.3125 365.625 C302.16118652 365.07102539 303.00987305 364.51705078 303.88427734 363.94628906 C304.66109863 363.4406543 305.43791992 362.93501953 306.23828125 362.4140625 C306.91930908 361.9701416 307.60033691 361.5262207 308.30200195 361.06884766 C310 360 310 360 312 359 C312.11951019 359.97861496 312.23902039 360.95722992 312.3621521 361.96549988 C312.97877289 366.2586332 314.06124336 370.37336917 315.20556641 374.55200195 C315.42855408 375.37932831 315.65154175 376.20665466 315.88128662 377.05905151 C316.61746205 379.78653745 317.35949075 382.5123942 318.1015625 385.23828125 C318.62181607 387.16129316 319.14169662 389.08440601 319.66122437 391.00761414 C321.0325421 396.08012667 322.40879719 401.15128666 323.78613281 406.22216797 C325.16106067 411.28731255 326.53157605 416.35365017 327.90234375 421.41992188 C329.74531485 428.22997089 331.58962528 435.03965386 333.4360466 441.84876823 C336.97371981 454.89479124 340.49455711 467.94527609 344 481 C346.92516998 479.60236596 348.80893356 478.38788096 350.91796875 475.91015625 C351.44551758 475.29615967 351.97306641 474.68216309 352.51660156 474.04956055 C353.06799805 473.39383057 353.61939453 472.73810059 354.1875 472.0625 C354.76338867 471.38807861 355.33927734 470.71365723 355.93261719 470.01879883 C359.99015654 465.25011517 363.9548014 460.40856688 367.890625 455.5390625 C370.02242095 452.97301182 372.24067986 450.51658912 374.5 448.0625 C384.0302204 437.53260613 392.62004033 426.33384802 395 412 C395.1340625 411.19304687 395.268125 410.38609375 395.40625 409.5546875 C397.14202869 396.0235036 393.14302562 382.90023276 389.5546875 369.98828125 C389.10672628 368.35169821 388.659542 366.71490233 388.21307373 365.07791138 C387.02220242 360.71930981 385.82125323 356.36354635 384.6183548 352.00825119 C383.37129118 347.4858169 382.13394356 342.96072754 380.89599609 338.43579102 C379.14357333 332.03311932 377.38853223 325.63117815 375.62977791 319.23024273 C371.60817547 304.59245556 367.63277871 289.94229302 363.6675415 275.28915405 C362.34393393 270.39910559 361.01826289 265.50961791 359.69235229 260.62019348 C358.46125757 256.08021318 357.23061982 251.54010905 356 247 C372.89327085 247.58758508 389.76077886 248.38452314 406.6328125 249.41015625 C408.86008284 249.54348937 411.08736793 249.67657641 413.31466675 249.80943298 C419.07827304 250.15387009 424.84167768 250.50156915 430.6050415 250.85003662 C436.52563466 251.20740141 442.44641968 251.56155851 448.3671875 251.91601562 C459.91164428 252.607604 471.45588983 253.30265145 483 254 C479.8543497 248.17287309 476.70902748 242.36776734 473.23046875 236.73046875 C472.57377197 235.66376953 471.9170752 234.59707031 471.24047852 233.49804688 C470.56299561 232.40556641 469.8855127 231.31308594 469.1875 230.1875 C468.83517303 229.61862061 468.48284607 229.04974121 468.11984253 228.46362305 C466.36987709 225.63829281 464.6165974 222.81508675 462.86035156 219.99365234 C461.32203751 217.51821837 459.79501903 215.03650399 458.2734375 212.55078125 C448.15678318 196.180665 436.08830349 184.98903211 417.17657471 179.98916626 C410.84917419 178.61627279 404.47416992 178.4223163 398.02246094 178.13037109 C396.63021618 178.06177488 395.2380049 177.99249618 393.8458252 177.92259216 C390.09025825 177.73596786 386.33429613 177.55891003 382.57818127 177.38370848 C378.63781286 177.19832273 374.697872 177.00424846 370.75787354 176.81118774 C364.14773973 176.48848979 357.53735632 176.17142659 350.92675781 175.85839844 C341.60867978 175.41715395 332.29112198 174.96560344 322.97363615 174.51204944 C315.72731226 174.15968466 308.48085496 173.81007587 301.234375 173.4609375 C300.45892177 173.42354949 299.68346853 173.38616149 298.88451672 173.34764051 C294.4263889 173.13286847 289.96819796 172.91949744 285.50990295 172.70822334 C283.51777552 172.61358635 281.52570202 172.51781627 279.53363037 172.42201233 C278.34495361 172.36600357 277.15627686 172.30999481 275.93157959 172.25228882 C274.90072109 172.20326605 273.86986259 172.15424328 272.80776596 172.10373497 C270.20184464 172.0074573 267.60736965 171.9806915 265 172 C267.39386517 165.64509036 269.78993928 159.29101632 272.1875 152.9375 C272.55848816 151.95436829 272.92947632 150.97123657 273.31170654 149.95831299 C280.7449499 130.26727984 288.24883339 110.60348176 295.77807617 90.94897461 C300.60789003 78.33117111 305.37071581 65.69282911 310 53 C307.04690234 53 304.75831425 53.43906806 301.89282227 54.11401367 Z " fill="#A80202" transform="translate(607,66)"/>
<path d="M0 0 C1.05133494 0.95148932 2.10476126 1.90067236 3.16015625 2.84765625 C8.11268765 7.29982409 12.90151015 11.75713623 17.18359375 16.875 C19.41117145 19.48102638 21.77124436 21.94488972 24.125 24.4375 C30.99576233 31.84411034 37.00571245 39.88000099 43 48 C43.50144531 48.6712793 44.00289062 49.34255859 44.51953125 50.03417969 C84.2060697 103.35969342 108.81716421 172.35332128 110 239 C110.02046387 240.03995117 110.04092773 241.07990234 110.06201172 242.15136719 C110.990505 298.09116893 100.88194299 352.22721628 77 403 C76.60876953 403.84143555 76.21753906 404.68287109 75.81445312 405.54980469 C60.7895837 437.61202606 40.11518554 466.20480153 16 492 C15.04851068 493.05133494 14.09932764 494.10476126 13.15234375 495.16015625 C8.6795238 500.13557467 4.19945073 504.94698893 -0.94140625 509.25 C-3.35036459 511.29784315 -5.63187433 513.46152569 -7.9375 515.625 C-19.09139934 525.74274476 -31.32500871 534.36501936 -43.8125 542.75 C-44.85688232 543.45398926 -45.90126465 544.15797852 -46.97729492 544.88330078 C-47.96060791 545.53540527 -48.9439209 546.18750977 -49.95703125 546.859375 C-50.83335205 547.44170898 -51.70967285 548.02404297 -52.61254883 548.62402344 C-55 550 -55 550 -59 551 C-59 391.61 -59 232.22 -59 68 C-214.76 68 -370.52 68 -531 68 C-529.60636085 64.51590213 -528.6816185 62.27255867 -526.63671875 59.35546875 C-526.16838623 58.68636475 -525.70005371 58.01726074 -525.2175293 57.32788086 C-524.46016479 56.26839233 -524.46016479 56.26839233 -523.6875 55.1875 C-523.1613208 54.44701416 -522.6351416 53.70652832 -522.09301758 52.94360352 C-514.34004914 42.15850526 -505.8795797 31.87561848 -497 22 C-496.38769531 21.29617188 -495.77539062 20.59234375 -495.14453125 19.8671875 C-485.45552296 8.85116682 -475.16544053 -1.87472818 -463.61328125 -10.9453125 C-460.82068253 -13.14098803 -458.1356131 -15.43944077 -455.4375 -17.75 C-441.54782685 -29.29791358 -426.64900986 -39.02130855 -411 -48 C-410.18805176 -48.47179687 -409.37610352 -48.94359375 -408.53955078 -49.4296875 C-320.84261839 -100.21359396 -211.68986857 -106.84017284 0 0 Z " fill="#A80202" transform="translate(1183,776)"/>
<path d="M0 0 C126.1512372 0 126.1512372 0 149.421875 20.4140625 C156.70790608 27.72217246 162.57270064 35.94089596 167.76400757 44.83836365 C168.19340964 45.57239676 168.62281171 46.30642987 169.06522596 47.06270641 C173.78986196 55.23319348 178.01754593 63.63568952 182.21337891 72.08618164 C183.09516468 73.85067519 183.97748277 75.61490281 184.86028099 77.37889004 C187.19378474 82.04522842 189.52011663 86.71510529 191.84483337 91.38582611 C194.03839999 95.79021902 196.23861054 100.19127922 198.43823242 104.59265137 C204.84040333 117.41264952 211.23207984 130.23788629 217.625 143.0625 C239.095625 186.0965625 239.095625 186.0965625 261 230 C261.33 154.1 261.66 78.2 262 0 C298.96 0 335.92 0 374 0 C374 135.3 374 270.6 374 410 C244.03030303 410 244.03030303 410 221.4296875 388.5546875 C214.67210543 381.44944848 209.19195998 373.61344862 204.25186157 365.16993713 C203.82019641 364.43306972 203.38853124 363.69620231 202.94378531 362.93700558 C198.28066424 354.88623617 194.10571641 346.61140224 189.97021484 338.28100586 C189.10845372 336.55656153 188.24616016 334.83238319 187.38338661 333.10844517 C185.10375139 328.54984357 182.83128612 323.98770561 180.56044006 319.42472076 C178.41733144 315.12123816 176.26757455 310.82109066 174.1184082 306.52062988 C167.8640226 293.99620508 161.62013256 281.46654127 155.375 268.9375 C134.399375 226.8934375 134.399375 226.8934375 113 184 C112.67 258.58 112.34 333.16 112 410 C75.04 410 38.08 410 0 410 C0 274.7 0 139.4 0 0 Z " fill="#A80202" transform="translate(2024,687)"/>
<path d="M0 0 C53.7075 -0.061875 53.7075 -0.061875 108.5 -0.125 C125.43151367 -0.15231201 125.43151367 -0.15231201 142.70507812 -0.18017578 C156.53417969 -0.18920898 156.53417969 -0.18920898 163.01696777 -0.19088745 C167.52545152 -0.1927438 172.03388772 -0.20021106 176.5423584 -0.21115112 C182.30848404 -0.22495577 188.0745414 -0.22896638 193.84068203 -0.22614455 C195.94729209 -0.22673388 198.05390475 -0.23064822 200.16050053 -0.23843026 C231.62349729 -0.34917901 261.01676414 5.40032112 284.25390625 28.12890625 C307.151254 52.06852303 313.89776134 83.03681553 313.28515625 115.1953125 C312.43860414 140.67688532 304.90259989 164.14678706 286.484375 182.5078125 C281.63997995 187.01042508 276.73288659 190.70889844 271 194 C273.23053406 195.48702271 275.28241208 196.69681611 277.66015625 197.8828125 C286.16042478 202.19403699 293.9399792 206.49766152 301 213 C301.90105469 213.80953125 302.80210937 214.6190625 303.73046875 215.453125 C323.08849492 233.71642142 331.88484407 259.39805272 333.12451172 285.63525391 C334.13116519 321.36832604 326.22549633 355.05890995 301.234375 381.73046875 C284.98829329 398.23217062 262.8707649 409.81522483 239.32802677 410.12304783 C237.51703401 410.12722007 235.70602345 410.12593408 233.89503479 410.12025452 C232.89507477 410.12111053 231.89511475 410.12196655 230.86485291 410.12284851 C227.51217859 410.12450033 224.1595545 410.1189855 220.80688477 410.11352539 C218.36302918 410.11321899 215.9191735 410.11335265 213.47531796 410.11389065 C206.93276414 410.11411634 200.39022863 410.10832182 193.84767914 410.10128021 C187.70765628 410.09558394 181.56763786 410.09531702 175.4276123 410.09460449 C157.47257245 410.08935784 139.51753599 410.07539668 121.5625 410.0625 C81.446875 410.041875 41.33125 410.02125 0 410 C0 274.7 0 139.4 0 0 Z M112 94 C112 114.13 112 134.26 112 155 C121.095625 155.04125 130.19125 155.0825 139.5625 155.125 C143.82136108 155.15231201 143.82136108 155.15231201 148.16625977 155.18017578 C172.9532475 156.46367402 172.9532475 156.46367402 194.9921875 147.2421875 C201.45632346 140.40254157 203.5612758 133.35063596 203.4375 124.0625 C203.42722778 122.87672363 203.42722778 122.87672363 203.41674805 121.66699219 C203.2527765 115.71488644 202.37101399 111.01732315 199 106 C198.01 104.39125 198.01 104.39125 197 102.75 C191.65241868 96.78794505 182.59482635 94.91133425 175 94 C172.80856149 93.91850009 170.61506818 93.88206224 168.42211914 93.88647461 C166.53095116 93.88658791 166.53095116 93.88658791 164.60157776 93.88670349 C163.24610351 93.8918085 161.89062967 93.89702447 160.53515625 93.90234375 C159.13268586 93.90421146 157.73021481 93.9056337 156.32774353 93.90663147 C152.6567908 93.91042884 148.98587835 93.92023504 145.31494141 93.93133545 C141.56087804 93.94160969 137.80680789 93.94619691 134.05273438 93.95117188 C126.70178748 93.96132792 119.35095083 93.98090662 112 94 Z M112 241 C112 265.75 112 290.5 112 316 C126.50778163 316.11647124 126.50778163 316.11647124 141.015625 316.1953125 C146.93862358 316.21916267 152.86137326 316.24728394 158.78417969 316.30175781 C163.56285443 316.34543039 168.34126199 316.36918215 173.120121 316.37950897 C174.93726935 316.38686208 176.75440418 316.40122049 178.57143784 316.42292023 C192.03562499 316.5772234 202.67066827 315.57244105 213 306 C221.34063926 297.38906225 223.58689392 286.79304198 223.40234375 275.15869141 C222.98118141 264.56023675 220.01186323 256.59331579 212.1484375 249.27734375 C203.6287958 242.36998484 193.80399337 240.8326455 183.06689453 240.88647461 C182.2954863 240.88632858 181.52407806 240.88618256 180.72929382 240.8860321 C178.19710409 240.88672492 175.66498928 240.89448759 173.1328125 240.90234375 C171.3701888 240.90421017 169.60756459 240.90563302 167.84494019 240.90663147 C163.21881666 240.91043897 158.59272482 240.92025411 153.96661377 240.93133545 C148.40902359 240.943392 142.85142278 240.94796022 137.29382324 240.95378876 C128.86252683 240.96346686 120.43129986 240.98263577 112 241 Z " fill="#A80202" transform="translate(1448,687)"/>
<path d="M0 0 C268.16911765 0 268.16911765 0 315 44 C315.59167969 44.515625 316.18335937 45.03125 316.79296875 45.5625 C327.68161038 55.49418263 335.11691647 69.67761965 341 83 C341.27150879 83.61214355 341.54301758 84.22428711 341.82275391 84.85498047 C355.15610216 115.69709857 358.11937649 151.45547486 358.203125 184.68359375 C358.20595238 185.45950426 358.20877975 186.23541477 358.21169281 187.03483772 C358.22657389 191.15547124 358.23586851 195.27607086 358.24023438 199.39672852 C358.24458167 202.72692038 358.25834279 206.0568477 358.28125 209.38696289 C358.62461069 260.38479613 356.12438327 319.50286212 321 360 C320.33613281 360.80824219 319.67226562 361.61648438 318.98828125 362.44921875 C296.70090424 388.69147227 261.92663764 400.59481565 229 406.25 C228.12512939 406.40114258 227.25025879 406.55228516 226.34887695 406.70800781 C151.82534915 418.54413681 75.45760496 410 0 410 C0 274.7 0 139.4 0 0 Z M112 94 C112 167.26 112 240.52 112 316 C170.33237611 321.40274344 170.33237611 321.40274344 221.71875 299.40625 C243.91900776 275.98953976 246.57938684 239.1466803 246.39111328 208.59326172 C246.37500275 205.5005284 246.39109872 202.40910112 246.41015625 199.31640625 C246.44360723 167.84043057 242.65626443 133.50886821 219.91796875 109.83203125 C192.78745962 83.77696572 142.18572199 94 112 94 Z " fill="#A80202" transform="translate(2472,687)"/>
<path d="M0 0 C0 135.3 0 270.6 0 410 C-36.63 410 -73.26 410 -111 410 C-111 387.56 -111 365.12 -111 342 C-155.22 342 -199.44 342 -245 342 C-245.99 345.3 -246.98 348.6 -248 352 C-248.74148521 354.02263945 -249.51322679 356.03471391 -250.32836914 358.02880859 C-250.76214371 359.09626312 -251.19591827 360.16371765 -251.64283752 361.26351929 C-252.1023027 362.3805423 -252.56176788 363.49756531 -253.03515625 364.6484375 C-253.51448105 365.82338776 -253.99380585 366.99833801 -254.48765564 368.20889282 C-255.49490792 370.67549538 -256.50381089 373.14133171 -257.51586914 375.60595703 C-258.81016353 378.75803002 -260.09897214 381.91230877 -261.38584232 385.06741905 C-262.62112986 388.09523694 -263.85936364 391.1218476 -265.09765625 394.1484375 C-265.78989037 395.84219009 -265.78989037 395.84219009 -266.49610901 397.57015991 C-266.92673141 398.61870148 -267.35735382 399.66724304 -267.80102539 400.74755859 C-268.17836319 401.6678183 -268.55570099 402.588078 -268.94447327 403.53622437 C-269.88297716 405.72684916 -270.93420203 407.86840406 -272 410 C-311.27 410 -350.54 410 -391 410 C-389.13014142 403.76713808 -387.32442272 397.98759857 -384.76953125 392.08203125 C-384.30888275 390.99823685 -384.30888275 390.99823685 -383.83892822 389.89254761 C-383.17883586 388.34046695 -382.51649646 386.7893403 -381.8520813 385.23910522 C-380.04062262 381.01077301 -378.24772647 376.7745703 -376.453125 372.5390625 C-375.89655968 371.22699074 -375.89655968 371.22699074 -375.32875061 369.88841248 C-371.50103439 360.85093543 -367.77462579 351.77293133 -364.0625 342.6875 C-362.72964657 339.42818897 -361.39624814 336.16910126 -360.0625 332.91015625 C-359.56372345 331.69131996 -359.56372345 331.69131996 -359.05487061 330.44786072 C-355.25193046 321.16203695 -351.40907188 311.8928166 -347.5625 302.625 C-347.2095285 301.77444031 -346.85655701 300.92388062 -346.4928894 300.04754639 C-344.70652889 295.74324347 -342.91961724 291.43916969 -341.13232422 287.13525391 C-337.62753551 278.69530973 -334.12589546 270.25405972 -330.625 261.8125 C-330.27768829 260.97511292 -329.93037659 260.13772583 -329.57254028 259.27496338 C-323.46480983 244.54761564 -317.37637951 229.81233486 -311.2925415 215.07510376 C-305.01870389 199.87816796 -298.73069918 184.68718227 -292.42504883 169.50341797 C-288.64472359 160.39744921 -284.88097581 151.28492604 -281.13671875 142.1640625 C-234.98870439 29.79767627 -234.98870439 29.79767627 -191.125 10.6328125 C-135.80237319 -12.10797881 -44.07931359 0 0 0 Z M-136 107 C-136.79921875 107.70769531 -137.5984375 108.41539062 -138.421875 109.14453125 C-145.66240054 115.92409166 -150.84394744 123.61052676 -156 132 C-156.53826416 132.85198975 -156.53826416 132.85198975 -157.08740234 133.72119141 C-173.87521254 160.49263187 -184.11489979 192.27176678 -195.78417969 221.46679688 C-197.29588558 225.2481577 -198.8184833 229.02489395 -200.34863281 232.79882812 C-200.72239044 233.72387146 -201.09614807 234.64891479 -201.48123169 235.60198975 C-202.19148115 237.35947255 -202.90431162 239.11591515 -203.62008667 240.87115479 C-203.93382233 241.64940613 -204.24755798 242.42765747 -204.57080078 243.22949219 C-204.84787872 243.91211121 -205.12495667 244.59473022 -205.41043091 245.29803467 C-206.10910746 247.01477293 -206.10910746 247.01477293 -206 249 C-174.65 249 -143.3 249 -111 249 C-111 198.18 -111 147.36 -111 95 C-120.41944031 95 -129.28424186 100.85194084 -136 107 Z " fill="#A80202" transform="translate(3233,687)"/>
<path d="M0 0 C0.70010643 0.00262702 1.40021286 0.00525405 2.12153464 0.00796068 C2.86246744 0.00680694 3.60340024 0.00565319 4.36678555 0.00446448 C6.88004786 0.00179205 9.3932477 0.0063241 11.90650683 0.01075399 C13.70964826 0.01031702 15.51278963 0.00944095 17.31593066 0.00816 C22.30549823 0.00590445 27.29504457 0.00994748 32.28460945 0.01493578 C37.7347976 0.01928248 43.18498468 0.01784249 48.63517409 0.01711786 C59.22931585 0.01658479 69.82344918 0.02121584 80.41758876 0.02761919 C92.66405331 0.03480062 104.91051274 0.03561292 117.15697986 0.03640402 C149.51151408 0.04166092 181.86604641 0.05562194 214.22057849 0.06850851 C322.59464099 0.09944601 322.59464099 0.09944601 433.15807849 0.13100851 C433.15807849 147.97100851 433.15807849 295.81100851 433.15807849 448.13100851 C406.18840773 456.33916917 406.18840773 456.33916917 396.97057849 458.31850851 C395.31808093 458.67948629 395.31808093 458.67948629 393.63219958 459.04775656 C365.42440391 465.0087468 338.18996955 466.13100851 309.15807849 466.13100851 C309.15807849 355.91100851 309.15807849 245.69100851 309.15807849 132.13100851 C198.60807849 132.13100851 88.05807849 132.13100851 -25.84192151 132.13100851 C-25.84192151 97.14225039 -25.84192151 97.14225039 -24.65442151 85.94350851 C-24.58912244 85.29532156 -24.52382337 84.64713461 -24.45654554 83.97930563 C-15.95788427 0.05691929 -15.95788427 0.05691929 0 0 Z " fill="#A80202" transform="translate(623.8419215120375,910.8689914904535)"/>
<path d="M0 0 C1.02925598 0.00215515 2.05851196 0.0043103 3.11895752 0.00653076 C48.49953904 0.15869358 93.67766614 8.15298897 127.5625 40.5625 C156.00567776 70.03922346 162.80151006 109.91619112 164.875 149.3125 C132.205 149.3125 99.535 149.3125 65.875 149.3125 C64.885 140.4025 64.885 140.4025 63.875 131.3125 C61.25050347 120.06465773 57.87643922 110.02801934 48.875 102.3125 C48.33617188 101.83296875 47.79734375 101.3534375 47.2421875 100.859375 C31.19630373 87.56613238 7.54370882 87.09476078 -12.25 88.5859375 C-26.44526566 89.91997534 -40.87011401 93.56583357 -50.9609375 104.2578125 C-57.87461161 112.85774859 -60.26513744 123.41091189 -59.125 134.3125 C-56.94055748 142.75599284 -54.03986854 148.58968548 -46.625 153.375 C-37.62303573 158.45325205 -27.91702803 160.90842224 -17.75 162.375 C-16.63568604 162.5392749 -15.52137207 162.7035498 -14.37329102 162.87280273 C-0.64223785 164.73382773 13.1869134 165.40552157 27.00976562 166.24291992 C70.50003875 168.88805731 120.75170384 173.40334414 152.5 207 C160.50759313 216.25258994 166.31772187 226.61525803 169.875 238.3125 C170.07109863 238.93189453 170.26719727 239.55128906 170.46923828 240.18945312 C177.47747307 263.45472969 176.65228675 294.82115474 170.875 318.3125 C170.60163818 319.42455811 170.60163818 319.42455811 170.32275391 320.55908203 C162.58733261 350.84807083 146.75816827 376.17527489 119.72583008 392.55932617 C94.43124434 407.2623185 65.78817575 413.70341824 36.875 416.3125 C35.67488281 416.42464844 34.47476563 416.53679687 33.23828125 416.65234375 C-17.66343437 420.47128028 -82.1425816 420.58653058 -123.890625 387.09375 C-151.88181875 362.70878367 -162.47259098 328.35873862 -165.125 292.3125 C-165.125 287.0325 -165.125 281.7525 -165.125 276.3125 C-132.785 276.3125 -100.445 276.3125 -67.125 276.3125 C-66.135 280.9325 -65.145 285.5525 -64.125 290.3125 C-58.55223893 303.53160765 -51.15380857 311.20058751 -38.125 317.3125 C-9.92845265 328.27073585 26.48096555 329.6319881 54.81640625 318.1171875 C64.92157285 313.32815176 70.13392161 307.36098729 74.1875 296.9375 C76.02912501 287.22711359 75.12914489 279.5611208 69.9375 271.1875 C53.27369418 252.99082184 15.98001012 255.45843744 -6.4359436 254.0586853 C-32.96476654 252.40068552 -59.38154374 250.3772 -85.125 243.3125 C-86.29627441 242.99224854 -86.29627441 242.99224854 -87.49121094 242.66552734 C-103.83777823 238.04584528 -119.38239972 230.66680142 -132.125 219.3125 C-132.92421875 218.70921875 -133.7234375 218.1059375 -134.546875 217.484375 C-151.54595447 203.16393836 -159.91602902 179.83442549 -162.125 158.3125 C-162.48504427 151.96366172 -162.46587677 145.60685081 -162.4375 139.25 C-162.43534485 138.38433411 -162.4331897 137.51866821 -162.43096924 136.62677002 C-162.38040304 123.98434253 -162.09573842 111.6598818 -159.125 99.3125 C-158.92632324 98.46139648 -158.72764648 97.61029297 -158.52294922 96.73339844 C-155.56355186 84.4302858 -151.41524253 73.29039564 -145.125 62.3125 C-144.57070312 61.33152344 -144.01640625 60.35054687 -143.4453125 59.33984375 C-125.81616664 30.02822564 -96.4189581 14.43277924 -64.125 6.3125 C-60.63715938 5.49409125 -57.14008195 4.75413794 -53.625 4.0625 C-52.86872314 3.91143799 -52.11244629 3.76037598 -51.33325195 3.60473633 C-34.35049632 0.49576103 -17.22044478 -0.06519066 0 0 Z " fill="#A80202" transform="translate(3785.125,683.6875)"/>
<path d="M0 0 C88.11 0 176.22 0 267 0 C267 87.78 267 175.56 267 266 C178.89 266 90.78 266 0 266 C0 178.22 0 90.44 0 0 Z " fill="#A80202" transform="translate(598,1111)"/>
<path d="M0 0 C36.96 0 73.92 0 112 0 C112.01458252 9.26852051 112.02916504 18.53704102 112.04418945 28.08642578 C112.09293305 57.73217117 112.15633827 87.37786894 112.22898628 117.023565 C112.24025463 121.62736338 112.25139305 126.23116205 112.26245117 130.83496094 C112.26465486 131.75150581 112.26685854 132.66805068 112.269129 133.61236964 C112.30451462 148.45868542 112.32937161 163.30500115 112.35034702 178.15134348 C112.372099 193.38171338 112.40514368 208.61202849 112.44870156 223.84235179 C112.47522866 233.24251261 112.49291623 242.64260514 112.49934604 252.04280154 C112.50459668 258.48628425 112.52080276 264.92968098 112.54566566 271.37311764 C112.55969179 275.09229227 112.56884734 278.81131294 112.56500816 282.53051567 C112.56097308 286.56169637 112.57998669 290.5924393 112.60127258 294.62356567 C112.59642501 295.80060975 112.59157743 296.97765383 112.58658296 298.19036591 C112.60291827 306.04720339 112.60291827 306.04720339 116 313 C119.2631038 315.49516311 122.58773979 315.25975579 126.59320068 315.2784729 C127.58450513 315.2871615 127.58450513 315.2871615 128.59583592 315.29602563 C130.80840633 315.31301943 133.02076806 315.31590154 135.23339844 315.31884766 C136.82018037 315.32814628 138.40695741 315.33831485 139.99372864 315.34928894 C144.30119525 315.37661052 148.60862911 315.39174474 152.91615963 315.40471697 C157.4178792 315.42033806 161.91953182 315.44713154 166.42120361 315.4727478 C174.94566857 315.51955369 183.4701461 315.55628904 191.99467397 315.58942068 C203.51393365 315.63477245 215.03311054 315.69565149 226.55230141 315.75566864 C244.70149279 315.84981931 262.85070771 315.92319899 281 316 C281 347.02 281 378.04 281 410 C252.13314491 410.08836723 223.26639302 410.16215211 194.39943603 410.20426132 C190.98276181 410.20926347 187.56608786 410.21444083 184.14941406 410.21972656 C183.46928487 410.2207758 182.78915567 410.22182505 182.0884165 410.22290608 C171.11067002 410.24025826 160.13300829 410.27176694 149.1553119 410.30861118 C137.87092903 410.34616572 126.58658812 410.3679674 115.30213964 410.37635398 C108.9723445 410.3815483 102.64274085 410.39367398 96.31300735 410.42292023 C90.34255726 410.45028021 84.37237566 410.45840372 78.40186882 410.45243073 C76.22278695 410.45352182 74.04369512 410.4613519 71.86466789 410.4768219 C52.15038304 410.60979525 30.96528191 409.37256396 15.80859375 395.03515625 C-2.16856267 374.80600183 -0.44401904 347.36704374 -0.34819686 322.09866607 C-0.33512175 317.76695523 -0.33963399 313.43525594 -0.34190369 309.10353088 C-0.34346924 301.61673174 -0.33413563 294.13001162 -0.31719017 286.64323235 C-0.29270662 275.81890211 -0.28498538 264.9946097 -0.2812262 254.17025477 C-0.27467631 236.60428561 -0.25475505 219.03835848 -0.22631836 201.47241211 C-0.19873978 184.4187033 -0.17752484 167.36500594 -0.16479492 150.3112793 C-0.16400675 149.25834916 -0.16321858 148.20541903 -0.16240653 147.12058192 C-0.15849113 141.83782155 -0.15470008 136.5550611 -0.15097082 131.2723006 C-0.11992051 87.51482973 -0.06464216 43.75743667 0 0 Z " fill="#A80202" transform="translate(3306,687)"/>
<path d="M0 0 C36.96 0 73.92 0 112 0 C112 135.3 112 270.6 112 410 C75.04 410 38.08 410 0 410 C0 274.7 0 139.4 0 0 Z " fill="#A80202" transform="translate(1839,687)"/>
<path d="M0 0 C70.29 0 140.58 0 213 0 C213 70.62 213 141.24 213 214 C142.71 214 72.42 214 0 214 C0 143.38 0 72.76 0 0 Z " fill="#A80202" transform="translate(50,680)"/>
<path d="M0 0 C20.37847505 -0.59011028 39.2288154 5.29236148 56.8359375 15.12890625 C57.82207031 15.67289063 58.80820312 16.216875 59.82421875 16.77734375 C84.07175661 31.16445015 99.66504087 55.89387467 106.6484375 82.69140625 C113.67278847 112.02339304 107.26634759 141.72269229 91.8359375 167.12890625 C89.36068146 170.65308268 86.68048877 173.89892914 83.8359375 177.12890625 C83.16046875 177.94746094 82.485 178.76601562 81.7890625 179.609375 C68.36831452 195.40569333 50.49374288 205.29964362 30.8359375 211.12890625 C29.70414063 211.47050781 28.57234375 211.81210938 27.40625 212.1640625 C0.13835353 218.93380585 -29.27516224 213.68166996 -53.42578125 199.87109375 C-67.15494464 191.13613387 -79.53770596 180.00794524 -88.1640625 166.12890625 C-88.74671875 165.22914063 -89.329375 164.329375 -89.9296875 163.40234375 C-97.45457952 151.26436575 -101.78760038 138.17486149 -104.1640625 124.12890625 C-104.29554688 123.35546875 -104.42703125 122.58203125 -104.5625 121.78515625 C-108.33924954 94.4292407 -100.75759172 66.90385514 -85.265625 44.3671875 C-67.77388374 21.45079231 -42.91308079 5.3436543 -14.1640625 1.12890625 C-9.44857099 0.58910656 -4.7362398 0.28212259 0 0 Z " fill="#A80202" transform="translate(396.1640625,920.87109375)"/>
<path d="M0 0 C21.32146896 17.77814348 35.05047992 42.86358004 38.69238281 70.41113281 C38.97636856 74.64488704 39.02692921 78.85627577 39.00488281 83.09863281 C38.99924316 84.24058105 38.99360352 85.3825293 38.98779297 86.55908203 C38.56672302 116.01313357 26.04550232 141.6866262 5.26611328 162.32519531 C-16.58413138 183.20470551 -44.58163873 190.95993257 -74.22167969 190.61816406 C-99.46665721 189.98412225 -122.68826806 179.0991394 -141.30761719 162.41113281 C-141.98953125 161.81171875 -142.67144531 161.21230469 -143.37402344 160.59472656 C-163.91664688 141.3801111 -173.71655665 114.61200099 -175.53027344 87.02441406 C-176.24815346 60.15073166 -167.15796387 35.17418712 -150.30761719 14.41113281 C-149.60894531 13.54617188 -148.91027344 12.68121094 -148.19042969 11.79003906 C-111.37792012 -31.42757748 -43.41062637 -34.58304666 0 0 Z " fill="#A80202" transform="translate(466.3076171875,1186.5888671875)"/>
<path d="M0 0 C1.2370166 0.00491455 2.4740332 0.0098291 3.74853516 0.01489258 C28.05868342 0.32664313 50.44295153 8.86291625 69.25 24.3125 C70.10207031 24.99957031 70.95414063 25.68664062 71.83203125 26.39453125 C91.96289193 43.48198622 103.99613328 68.33159492 107.25 94.3125 C107.52586781 98.40104448 107.58494755 102.46550062 107.5625 106.5625 C107.55686035 107.65369141 107.5512207 108.74488281 107.54541016 109.86914062 C107.18396936 134.0749379 99.04337154 156.85315335 83.25 175.3125 C82.58484375 176.11042969 81.9196875 176.90835938 81.234375 177.73046875 C63.11020735 198.75580712 38.03687046 211.14203588 10.5 214 C8.75114134 214.12183631 7.00100904 214.22695452 5.25 214.3125 C4.47785156 214.35375 3.70570313 214.395 2.91015625 214.4375 C-23.12320362 215.13056782 -49.46969199 206.14711615 -69 188.875 C-70.59219937 187.36345125 -72.17560398 185.84258355 -73.75 184.3125 C-74.56984375 183.56613281 -75.3896875 182.81976562 -76.234375 182.05078125 C-95.94863375 163.53039842 -105.33482793 137.27801159 -106.97265625 110.69921875 C-107.69279752 81.54915276 -97.16911659 53.42645483 -77.12451172 32.21582031 C-56.45557289 11.18034485 -29.52679513 -0.13861402 0 0 Z " fill="#A80202" transform="translate(397.75,679.6875)"/>
<path d="M0 0 C0.8353125 0.69738281 1.670625 1.39476562 2.53125 2.11328125 C22.94446478 19.84883668 36.42876386 43.00315541 40 70 C42.04144421 100.36200581 36.54236135 129.24468364 16.4375 152.9375 C14.64902235 154.9822074 12.83041118 156.99209441 11 159 C10.41734375 159.66515625 9.8346875 160.3303125 9.234375 161.015625 C-6.4953227 178.01640938 -32.38429078 189.68852243 -55.30834961 191.22119141 C-88.63446662 192.32106325 -116.12457721 184.67649038 -141 162 C-141.66515625 161.41734375 -142.3303125 160.8346875 -143.015625 160.234375 C-162.22017891 142.46567559 -172.51270093 114.54351616 -173.8984375 88.984375 C-174.65714661 59.21963293 -164.17976366 32.27548784 -144.40625 10.08984375 C-107.36071832 -28.64452835 -41.90857644 -35.17326951 0 0 Z " fill="#A80202" transform="translate(223,944)"/>
<path d="M0 0 C17.94405686 16.22600886 30.62951633 34.63260993 36.5703125 58.32421875 C36.84633301 59.40630615 36.84633301 59.40630615 37.12792969 60.51025391 C38.83413835 67.92359368 38.95584439 75.24078084 38.9453125 82.82421875 C38.94476868 83.48551788 38.94422485 84.14681702 38.94366455 84.82815552 C38.9023949 95.76411877 38.01105475 105.91498471 34.5703125 116.32421875 C34.25682861 117.29004883 34.25682861 117.29004883 33.93701172 118.27539062 C24.38414453 146.69785389 4.00066054 167.40183757 -22.30078125 180.78515625 C-46.85535503 192.54569231 -76.74122294 194.20903867 -102.53686523 185.37402344 C-115.37834479 180.68179497 -127.13743107 174.38832357 -137.4296875 165.32421875 C-138.65751953 164.31101562 -138.65751953 164.31101562 -139.91015625 163.27734375 C-155.31788989 150.18674215 -165.44248586 132.45121571 -171.4296875 113.32421875 C-171.77128906 112.23753906 -172.11289063 111.15085937 -172.46484375 110.03125 C-179.63887816 81.56868556 -174.04813864 51.28529419 -159.26953125 26.36816406 C-144.21993207 2.22503589 -119.91567894 -14.5243544 -92.42871094 -21.21923828 C-60.43869841 -28.5252133 -25.31473839 -21.26270931 0 0 Z " fill="#A80202" transform="translate(224.4296875,1186.67578125)"/>
<path d="M0 0 C0.66 0 1.32 0 2 0 C13.07421875 23.99414062 13.07421875 23.99414062 14.28016663 26.61096191 C15.07568512 28.33196933 15.87517825 30.05114524 16.67869568 31.76843262 C18.42833138 35.51815043 20.13275876 39.25771642 21.63696289 43.11328125 C23.69587852 48.87082457 23.69587852 48.87082457 27.76953125 53.13256836 C29.99662905 53.66521961 31.89933918 53.70050257 34.1875 53.625 C35.93633247 53.68361434 37.68502492 53.74648703 39.43359375 53.8125 C40.4376123 53.83183594 41.44163086 53.85117187 42.47607422 53.87109375 C49.1127622 54.11386576 55.71865977 54.80137808 62.33047485 55.40643311 C66.23452431 55.75910395 70.14065076 56.08651613 74.046875 56.4140625 C75.39941681 56.52812493 76.75195616 56.64221663 78.10449219 56.75634766 C79.06000977 56.83675293 80.01552734 56.9171582 81 57 C74.53300511 64.66337532 67.64780072 71.65902796 60.03125 78.1875 C56.9698467 80.91921371 54.1302081 83.86103901 51.25 86.78125 C47.96961819 90.01607095 44.49616322 93.00328867 41 96 C40.67 96.33 40.34 96.66 40 97 C40.16507775 103.64236474 41.53798403 110.11146308 43.06640625 116.55078125 C43.26475571 117.4126152 43.46310516 118.27444916 43.66746521 119.16239929 C44.29331989 121.88048791 44.92698962 124.59665399 45.5625 127.3125 C46.20130027 130.04625674 46.83816312 132.78037925 47.46824646 135.51615906 C47.85815791 137.20909747 48.25299234 138.90091189 48.65345764 140.59138489 C49.54652128 144.46815476 50.24919128 147.99028581 50 152 C41.96438101 147.69931928 34.07402354 143.17850167 26.21948242 138.55883789 C24.30578313 137.43355037 22.39031351 136.31132347 20.47460938 135.18945312 C19.85238495 134.82405426 19.23016052 134.4586554 18.58908081 134.08218384 C17.36840948 133.36586692 16.14652918 132.65160571 14.92337036 131.93954468 C11.67139316 130.03498984 8.56433829 128.01024631 5.48046875 125.84765625 C2.21567876 123.68877699 2.21567876 123.68877699 -0.94140625 124.359375 C-5.01710454 126.54557331 -8.99848154 128.82586857 -12.9375 131.25 C-13.7919873 131.76852539 -14.64647461 132.28705078 -15.52685547 132.82128906 C-20.48091179 135.83137118 -25.4169101 138.87083589 -30.35546875 141.90625 C-31.40033447 142.5465918 -32.4452002 143.18693359 -33.52172852 143.84667969 C-35.57054134 145.10327199 -37.61666693 146.36425753 -39.65991211 147.62988281 C-41.05415405 148.48598145 -41.05415405 148.48598145 -42.4765625 149.359375 C-43.30236816 149.86952148 -44.12817383 150.37966797 -44.97900391 150.90527344 C-47 152 -47 152 -49 152 C-48.39398544 144.95156158 -47.41588576 138.0315509 -46.1875 131.06640625 C-46.01371826 130.06665268 -45.83993652 129.06689911 -45.66088867 128.03684998 C-45.29615619 125.94329251 -44.92967961 123.8500382 -44.56152344 121.75708008 C-43.99741826 118.54781214 -43.43971772 115.33747747 -42.8828125 112.12695312 C-42.5264172 110.08587189 -42.16965937 108.04485392 -41.8125 106.00390625 C-41.64580811 105.0445668 -41.47911621 104.08522736 -41.30737305 103.09681702 C-41.15051025 102.20836594 -40.99364746 101.31991486 -40.83203125 100.40454102 C-40.69514893 99.62417984 -40.5582666 98.84381866 -40.41723633 98.03981018 C-40 96 -40 96 -39 93 C-39.53109375 92.78730469 -40.0621875 92.57460938 -40.609375 92.35546875 C-43.92148502 90.47752402 -46.50932368 87.91958177 -49.25 85.3125 C-50.41725351 84.21798673 -51.58521929 83.12423255 -52.75390625 82.03125 C-53.31480957 81.5053125 -53.87571289 80.979375 -54.45361328 80.4375 C-56.92780857 78.13752181 -59.475965 75.92755568 -62.03125 73.71875 C-65.26409682 70.89642341 -68.43081192 68.00073164 -71.60546875 65.11328125 C-73.28423586 63.63169396 -75.02301655 62.21668607 -76.80078125 60.85546875 C-77.52652344 60.24316406 -78.25226562 59.63085938 -79 59 C-79 58.34 -79 57.68 -79 57 C-72.2925826 56.42621678 -65.58478546 55.85704116 -58.87670898 55.29101562 C-56.59634621 55.09805812 -54.3160713 54.90405921 -52.03588867 54.70898438 C-48.75201795 54.42822596 -45.46784594 54.15125591 -42.18359375 53.875 C-41.16978134 53.78750488 -40.15596893 53.70000977 -39.11143494 53.60986328 C-34.05307542 53.18810128 -29.07586279 52.90089835 -24 53 C-23.75233887 52.19224121 -23.50467773 51.38448242 -23.24951172 50.55224609 C-21.75043721 46.29051609 -19.91234436 42.25711222 -18.0078125 38.1640625 C-17.62060028 37.32587982 -17.23338806 36.48769714 -16.83444214 35.62411499 C-16.01726044 33.85679179 -15.19855518 32.09017236 -14.37841797 30.32421875 C-13.13298237 27.64218993 -11.89225462 24.9580242 -10.65234375 22.2734375 C-9.85444318 20.54935117 -9.05627476 18.82538877 -8.2578125 17.1015625 C-7.89100372 16.30859772 -7.52419495 15.51563293 -7.14627075 14.69863892 C-4.8482781 9.75428648 -2.45911971 4.86630081 0 0 Z " fill="#A80202" transform="translate(865,254)"/>
<path d="M0 0 C7.26 0 14.52 0 22 0 C26.49985515 10.12467408 26.49985515 10.12467408 27.90356445 14.20239258 C28.22102127 15.11817581 28.53847809 16.03395905 28.86555481 16.97749329 C29.19480453 17.94011581 29.52405426 18.90273834 29.86328125 19.89453125 C30.39588814 21.43568855 30.39588814 21.43568855 30.93925476 23.00798035 C32.067397 26.27488227 33.19011469 29.54361631 34.3125 32.8125 C35.0536616 34.96301985 35.79519522 37.11341153 36.53710938 39.26367188 C37.63280091 42.43990302 38.72848968 45.61613491 39.82376099 48.79251099 C40.5337114 50.85134094 41.2438424 52.91010863 41.9541626 54.96881104 C42.65178901 56.99076729 43.34901351 59.01286225 44.0458374 61.03509521 C45.02100141 63.86170228 46.0001203 66.6869063 46.98046875 69.51171875 C47.27246658 70.36014847 47.56446442 71.20857819 47.86531067 72.0827179 C48.92871847 75.82790657 48.92871847 75.82790657 51 79 C51.20329926 78.40849655 51.40659851 77.8169931 51.61605835 77.20756531 C69.73534842 24.50649774 69.73534842 24.50649774 79 0 C86.26 0 93.52 0 101 0 C101 31.68 101 63.36 101 96 C97.04 96 93.08 96 89 96 C89 66.96 89 37.92 89 8 C85.926875 16.765625 82.85375 25.53125 79.6875 34.5625 C72.4995872 55.05641766 65.29287071 75.54316312 58 96 C53.38 96 48.76 96 44 96 C41.2455094 89.22082909 38.66713993 82.41097456 36.2421875 75.5078125 C35.89423126 74.52295868 35.54627502 73.53810486 35.18777466 72.52340698 C34.08156772 69.39128831 32.97814938 66.25819671 31.875 63.125 C25.62440317 45.40175287 19.32090252 27.69852705 13 10 C12.67 38.38 12.34 66.76 12 96 C8.04 96 4.08 96 0 96 C0 64.32 0 32.64 0 0 Z " fill="#A80202" transform="translate(2413,1253)"/>
<path d="M0 0 C7.92 0 15.84 0 24 0 C25.42094971 2.84975464 25.42094971 2.84975464 26.87060547 5.75708008 C30.04178475 12.11619523 33.21529381 18.47414572 36.38987541 24.831563 C38.30983096 28.67663754 40.22906012 32.52207067 42.14648438 36.3684082 C53.47383765 59.11871606 53.47383765 59.11871606 65.21923828 81.6550293 C66.51324489 84.08568252 67.76853516 86.53707033 69 89 C69.33 59.63 69.66 30.26 70 0 C73.96 0 77.92 0 82 0 C82 31.68 82 63.36 82 96 C74.41 96 66.82 96 59 96 C48.50756293 77.14378322 38.85662874 57.94326319 29.25 38.625 C23.8875 27.85875 18.525 17.0925 13 6 C13 35.7 13 65.4 13 96 C8.71 96 4.42 96 0 96 C0 64.32 0 32.64 0 0 Z " fill="#A80202" transform="translate(3643,1253)"/>
<path d="M0 0 C10.77953526 8.81961976 16.13666346 20.30986627 18 34 C19.41302762 51.04355531 16.19381105 65.87567977 5.12109375 79.2734375 C-3.35290136 88.48355743 -14.49414743 92.14658954 -26.7578125 92.95703125 C-39.27714802 93.12295015 -51.22619242 89.3721809 -60.484375 80.67578125 C-72.83754262 67.01725314 -74.77041057 51.30206411 -74.17480469 33.69335938 C-73.3638732 21.19867204 -67.73656573 10.24181437 -58.75 1.625 C-42.21864474 -12.07160673 -17.16802374 -13.04769805 0 0 Z M-53 13 C-60.9216602 23.13476109 -62.83778269 35.43325968 -62 48 C-60.76254857 55.80471335 -58.31336219 62.39345791 -54 69 C-53.1646875 70.3303125 -53.1646875 70.3303125 -52.3125 71.6875 C-45.76809206 78.23190794 -37.45340136 81.91193578 -28.25 82.375 C-18.45457452 82.09301048 -11.14129825 78.23358625 -4.1640625 71.5 C3.39576834 62.76662141 6.07708682 51.34461003 6 40 C4.97907621 27.51403939 1.14013556 17.19022723 -8.13671875 8.46875 C-21.93542035 -2.40821395 -41.46431256 0.12417575 -53 13 Z " fill="#A80202" transform="translate(2682,1259)"/>
<path d="M0 0 C54.4574005 0 54.4574005 0 63.34375 7.3203125 C68.37382289 12.42156567 70.12968717 18.2317514 70.25 25.25 C70.14562598 32.38538727 68.75163912 37.390864 63.9375 42.75 C56.63338735 49.30985237 47.87261882 50.64134085 38.375 51.25 C37.37082031 51.32734375 36.36664062 51.4046875 35.33203125 51.484375 C32.88869569 51.6705339 30.44529946 51.84215595 28 52 C30.82902876 54.85846007 33.66400779 57.71094984 36.5 60.5625 C37.29148437 61.36236328 38.08296875 62.16222656 38.8984375 62.98632812 C43.13246481 67.23770801 47.43752844 71.30907088 51.98632812 75.2199707 C55.80645221 78.59685294 59.39427651 82.20990105 63 85.8125 C63.77472656 86.57498047 64.54945313 87.33746094 65.34765625 88.12304688 C66.07855469 88.85201172 66.80945312 89.58097656 67.5625 90.33203125 C68.22378906 90.98921143 68.88507812 91.6463916 69.56640625 92.32348633 C71 94 71 94 71 96 C65.59397685 96.94780925 60.35833064 97.49145575 55 96 C51.13485383 93.15075411 48.44177657 89.89235521 45.4140625 86.19921875 C39.50330655 79.0017975 32.73777027 72.60521172 26.125 66.0625 C21.79375 61.751875 17.4625 57.44125 13 53 C12.67 67.19 12.34 81.38 12 96 C8.04 96 4.08 96 0 96 C0 64.32 0 32.64 0 0 Z M12 10 C12 20.89 12 31.78 12 43 C16.08375 43.04125 20.1675 43.0825 24.375 43.125 C26.27451416 43.15231201 26.27451416 43.15231201 28.21240234 43.18017578 C41.36924056 43.49938959 41.36924056 43.49938959 52.5625 37.5625 C53.52349609 36.66724609 53.52349609 36.66724609 54.50390625 35.75390625 C57.58503962 32.14182039 57.33653681 28.0223101 57.27734375 23.50390625 C56.86265651 19.76003972 55.50322623 17.76672373 53 15 C47.47067028 10.82479184 43.48220412 9.85103811 36.70703125 9.90234375 C35.41514893 9.90484131 34.1232666 9.90733887 32.79223633 9.90991211 C31.14892334 9.91901611 29.50561035 9.92812012 27.8125 9.9375 C22.594375 9.958125 17.37625 9.97875 12 10 Z " fill="#A80202" transform="translate(2185,1253)"/>
<path d="M0 0 C5.99653457 3.74620815 9.51899596 9.66500095 12.36328125 16 C13.16104582 19.74949347 13.12035118 23.10747202 12.98828125 26.9375 C9.02828125 26.9375 5.06828125 26.9375 0.98828125 26.9375 C0.57578125 25.41125 0.16328125 23.885 -0.26171875 22.3125 C-2.07920484 16.35518447 -4.0677074 11.88253619 -9.57421875 8.625 C-16.15851622 5.39270851 -23.29487102 4.53991549 -30.4375 6.65625 C-35.37406731 8.96184076 -38.54808193 12.01022636 -41.01171875 16.9375 C-41.43480743 21.07888723 -41.41207844 24.81148837 -40.01171875 28.75 C-33.43943604 35.93843421 -22.11832119 37.08930406 -13.09765625 39.20507812 C-1.91292737 41.94483514 7.2949029 45.16087448 13.98828125 54.9375 C17.14094269 60.9686784 17.01344003 68.95963839 15.3359375 75.46875 C11.6979717 84.58708487 5.44228087 89.18233111 -3.36328125 92.9921875 C-15.15090805 97.19957052 -29.73278359 96.02007996 -41.01171875 90.9375 C-49.70953131 85.90266867 -55.35832623 78.63760708 -58.01171875 68.9375 C-58.29974099 65.84240384 -58.21281401 63.05447647 -58.01171875 59.9375 C-54.05171875 59.9375 -50.09171875 59.9375 -46.01171875 59.9375 C-45.66109375 61.7525 -45.31046875 63.5675 -44.94921875 65.4375 C-43.1000512 72.69719482 -40.21051632 77.38044681 -33.75390625 81.3125 C-25.3719229 85.19354695 -16.7839623 85.0986814 -8.07421875 82.3125 C-3.16667497 80.28008288 -0.64296595 78.58603672 1.98828125 73.9375 C3.26208876 69.44692544 3.36964467 66.06040341 1.86328125 61.625 C-2.19664684 55.80576974 -6.79580005 54.08593024 -13.38671875 52.4375 C-14.17820312 52.22665771 -14.9696875 52.01581543 -15.78515625 51.79858398 C-19.57028985 50.79505347 -23.36621472 49.84735097 -27.17578125 48.94140625 C-36.40827435 46.67559073 -45.16876588 44.17970159 -51.07421875 36.25 C-55.00792678 29.52462821 -54.57942781 22.49906935 -54.01171875 14.9375 C-51.81624265 7.02662687 -45.94516761 2.33827155 -39.26953125 -1.94921875 C-26.89338504 -8.05164379 -11.82634839 -6.24614905 0 0 Z " fill="#A80202" transform="translate(1688.01171875,1256.0625)"/>
<path d="M0 0 C8.10150166 5.98747345 12.62610113 14.24776399 14.84765625 24.0390625 C15.1328125 25.96484375 15.1328125 25.96484375 15.3203125 28.71484375 C11.0303125 28.71484375 6.7403125 28.71484375 2.3203125 28.71484375 C1.8046875 27.06484375 1.2890625 25.41484375 0.7578125 23.71484375 C-1.9592904 16.30716322 -5.82851342 10.93235982 -12.9296875 7.27734375 C-20.48371135 3.90824911 -29.42680413 3.28895558 -37.45703125 5.46875 C-39.64125287 6.42084661 -41.64040142 7.48609844 -43.6796875 8.71484375 C-44.7109375 9.23046875 -45.7421875 9.74609375 -46.8046875 10.27734375 C-55.32833955 17.50391832 -59.09638758 27.63504097 -59.9921875 38.5078125 C-60.48654926 49.90567413 -58.8242331 61.08722259 -51.234375 70.07421875 C-44.39716873 77.28936105 -37.20229727 80.87179959 -27.2421875 81.21484375 C-19.56094231 80.96940751 -12.13754421 79.35032302 -6.6796875 73.71484375 C-6.0196875 73.71484375 -5.3596875 73.71484375 -4.6796875 73.71484375 C-4.3909375 73.13347656 -4.1021875 72.55210938 -3.8046875 71.953125 C-3.10903809 70.56907253 -2.40277731 69.19022873 -1.6796875 67.8203125 C0.56724451 63.51076712 2.14140079 59.43049059 3.3203125 54.71484375 C7.2803125 54.71484375 11.2403125 54.71484375 15.3203125 54.71484375 C15.00815463 65.3282115 11.11744013 75.26425512 3.3203125 82.71484375 C-8.67819846 91.84715357 -20.92598526 94.16711757 -35.6796875 92.71484375 C-47.56813048 90.66021067 -56.79053477 84.89693504 -64.1171875 75.33984375 C-73.31134137 61.67082563 -75.5337774 45.83622483 -72.5546875 29.77734375 C-69.50380284 16.80753643 -63.19349662 5.62296933 -51.8046875 -1.66015625 C-35.56172688 -10.47986338 -15.60559854 -10.004216 0 0 Z " fill="#A80202" transform="translate(2027.6796875,1258.28515625)"/>
<path d="M0 0 C0.84232178 0.00563965 1.68464355 0.0112793 2.55249023 0.01708984 C13.94720962 0.23958702 23.37516002 3.63139402 31.953125 11.3515625 C38.88344877 18.61556853 41.95209611 26.38454748 42.6875 36.3125 C38.7275 36.3125 34.7675 36.3125 30.6875 36.3125 C30.38457031 35.51585937 30.08164063 34.71921875 29.76953125 33.8984375 C25.71710295 23.64891115 21.96285635 17.92630044 11.6875 13.3125 C3.59006768 10.6305479 -6.17573071 11.25445976 -13.8125 14.8125 C-23.07737464 20.12984068 -28.14726919 27.57953283 -30.99609375 37.75390625 C-33.77214572 49.98768009 -32.79187985 62.67369626 -26.5625 73.75 C-21.52832629 81.36295386 -15.26588821 86.14419646 -6.3125 88.3125 C4.18679365 89.49382121 12.22510393 87.91974268 21 82.125 C26.49942739 76.36978529 29.14258996 70.0370502 30.6875 62.3125 C34.6475 62.3125 38.6075 62.3125 42.6875 62.3125 C43.4884134 71.32277574 39.9830719 79.63007386 34.30078125 86.5390625 C26.56600519 95.04169768 16.69811459 99.77196074 5.15625 100.55078125 C-7.83865952 100.79379629 -18.94020291 98.70426004 -29.3125 90.3125 C-30.23289062 89.59513672 -30.23289062 89.59513672 -31.171875 88.86328125 C-39.35728367 81.6738847 -44.59229212 69.56045996 -45.52954102 58.8269043 C-46.29357954 41.79057089 -44.56250343 27.40895325 -33.27734375 13.87109375 C-24.15385339 4.10397091 -13.25644689 -0.09250835 0 0 Z " fill="#A80202" transform="translate(3811.3125,1250.6875)"/>
<path d="M0 0 C8.34068779 6.20995746 13.01259846 14.7134475 15.32421875 24.73046875 C15.32421875 26.05046875 15.32421875 27.37046875 15.32421875 28.73046875 C11.36421875 28.73046875 7.40421875 28.73046875 3.32421875 28.73046875 C3.02128906 27.93382812 2.71835938 27.1371875 2.40625 26.31640625 C-1.6461783 16.0668799 -5.4004249 10.34426919 -15.67578125 5.73046875 C-22.67819779 3.36640505 -32.77308217 3.49470549 -39.61328125 6.29296875 C-49.69026221 11.76711818 -54.76962093 19.31937014 -58.48828125 30.08203125 C-61.64950475 42.15614878 -60.00344052 55.25018429 -53.92578125 66.10546875 C-48.91472933 73.76943051 -42.65895051 78.55495293 -33.67578125 80.73046875 C-23.1764876 81.91178996 -15.13817732 80.33771143 -6.36328125 74.54296875 C-0.86385386 68.78775404 1.77930871 62.45501895 3.32421875 54.73046875 C7.28421875 54.73046875 11.24421875 54.73046875 15.32421875 54.73046875 C16.0774819 63.20467924 13.07446256 70.75774088 8.07421875 77.54296875 C1.07579304 85.86381461 -7.86213909 91.0740438 -18.67578125 92.73046875 C-33.09579833 93.6382304 -45.01859469 91.99759385 -56.67578125 82.73046875 C-57.29066406 82.25222656 -57.90554687 81.77398438 -58.5390625 81.28125 C-66.71822653 74.08140938 -71.95516493 61.98310631 -72.89282227 51.24487305 C-73.64744175 34.41856311 -71.98310091 18.33880751 -60.23046875 5.19921875 C-43.74913064 -10.37109062 -18.94068282 -12.04234936 0 0 Z " fill="#A80202" transform="translate(3180.67578125,1258.26953125)"/>
<path d="M0 0 C6.27 0 12.54 0 19 0 C19.93457031 2.45179687 20.86914062 4.90359375 21.83203125 7.4296875 C22.32401001 8.7202858 22.32401001 8.7202858 22.82592773 10.03695679 C24.53253415 14.51448552 26.23788896 18.99248641 27.94140625 23.47119141 C31.59991857 33.08765284 35.26595818 42.70103962 38.95744324 52.30490112 C40.71361985 56.87619725 42.46460351 61.44947347 44.2149353 66.02301025 C45.07130786 68.25679043 45.93005127 70.48966313 46.79116821 72.72161865 C48.00226921 75.86160118 49.20512954 79.00462623 50.40625 82.1484375 C50.77111008 83.08828491 51.13597015 84.02813232 51.5118866 84.99645996 C51.84118668 85.86307251 52.17048676 86.72968506 52.50976562 87.62255859 C52.94367615 88.75158096 52.94367615 88.75158096 53.38635254 89.90341187 C54 92 54 92 54 96 C50.04 96 46.08 96 42 96 C40.89521463 93.16690656 39.7911567 90.3335331 38.6875 87.5 C38.37876953 86.70851563 38.07003906 85.91703125 37.75195312 85.1015625 C37.13378436 83.51384484 36.51773289 81.92530119 35.90380859 80.3359375 C35.30844587 78.79719342 34.70734304 77.2606561 34.10009766 75.7265625 C32.9133056 72.67899771 32 70.3009833 32 67 C17.15 67 2.3 67 -13 67 C-13.99 70.3 -14.98 73.6 -16 77 C-16.58672975 78.71837365 -17.18928206 80.43166136 -17.82421875 82.1328125 C-18.13037109 82.9578125 -18.43652344 83.7828125 -18.75195312 84.6328125 C-19.06068359 85.45523437 -19.36941406 86.27765625 -19.6875 87.125 C-20.00783203 87.98609375 -20.32816406 88.8471875 -20.65820312 89.734375 C-21.43599453 91.82396385 -22.21758732 93.91213712 -23 96 C-26.96 96 -30.92 96 -35 96 C-33.78717899 90.08862591 -32.28568934 84.57883444 -30.12109375 78.953125 C-29.69469856 77.82244095 -29.69469856 77.82244095 -29.25968933 76.66891479 C-28.32470626 74.19372384 -27.38117592 71.72188833 -26.4375 69.25 C-25.77791804 67.5091658 -25.1189127 65.76811303 -24.46044922 64.02685547 C-23.05691841 60.31784738 -21.64995834 56.61016443 -20.24072266 52.90332031 C-17.9027881 46.74980341 -15.5813574 40.59012016 -13.26171875 34.4296875 C-11.71640659 30.32802672 -10.17076945 26.22648847 -8.625 22.125 C-8.24906708 21.12730591 -7.87313416 20.12961182 -7.48580933 19.10168457 C-6.42138799 16.27828734 -5.35546469 13.45546205 -4.2890625 10.6328125 C-3.96995407 9.78572723 -3.65084564 8.93864197 -3.32206726 8.06588745 C-1.11466279 2.22932557 -1.11466279 2.22932557 0 0 Z M9 8 C4.3161689 19.47407786 -0.18018117 31.00860883 -4.5 42.625 C-5.16781494 44.41224487 -5.16781494 44.41224487 -5.84912109 46.2355957 C-6.25984863 47.34636475 -6.67057617 48.45713379 -7.09375 49.6015625 C-7.46177734 50.59494629 -7.82980469 51.58833008 -8.20898438 52.61181641 C-9.10480739 54.89713183 -9.10480739 54.89713183 -9 57 C3.21 57 15.42 57 28 57 C19.01799516 32.49338319 19.01799516 32.49338319 10 8 C9.67 8 9.34 8 9 8 Z " fill="#A80202" transform="translate(1488,1253)"/>
<path d="M0 0 C20.79 0 41.58 0 63 0 C63 3.3 63 6.6 63 10 C46.5 10 30 10 13 10 C13 20.56 13 31.12 13 42 C28.51 42 44.02 42 60 42 C60 45.3 60 48.6 60 52 C44.49 52 28.98 52 13 52 C13 63.22 13 74.44 13 86 C29.83 86 46.66 86 64 86 C64 89.3 64 92.6 64 96 C42.88 96 21.76 96 0 96 C0 64.32 0 32.64 0 0 Z " fill="#A80202" transform="translate(3537,1253)"/>
<path d="M0 0 C20.79 0 41.58 0 63 0 C63 3.3 63 6.6 63 10 C46.5 10 30 10 13 10 C13 20.56 13 31.12 13 42 C28.51 42 44.02 42 60 42 C60 45.3 60 48.6 60 52 C44.49 52 28.98 52 13 52 C13 63.22 13 74.44 13 86 C29.83 86 46.66 86 64 86 C64 89.3 64 92.6 64 96 C42.88 96 21.76 96 0 96 C0 64.32 0 32.64 0 0 Z " fill="#A80202" transform="translate(2894,1253)"/>
<path d="M0 0 C20.79 0 41.58 0 63 0 C63 3.3 63 6.6 63 10 C46.5 10 30 10 13 10 C13 20.56 13 31.12 13 42 C28.51 42 44.02 42 60 42 C60 45.3 60 48.6 60 52 C44.49 52 28.98 52 13 52 C13 63.22 13 74.44 13 86 C29.83 86 46.66 86 64 86 C64 89.3 64 92.6 64 96 C42.88 96 21.76 96 0 96 C0 64.32 0 32.64 0 0 Z " fill="#A80202" transform="translate(1854,1253)"/>
<path d="M0 0 C4.29 0 8.58 0 13 0 C13.0093457 1.97726074 13.01869141 3.95452148 13.02832031 5.99169922 C13.06398104 12.55766761 13.11786304 19.12329351 13.18390274 25.68902397 C13.22324889 29.66607072 13.25549978 33.64290033 13.27099609 37.62011719 C13.28624834 41.46537751 13.32084279 45.31004034 13.36830902 49.15503311 C13.38303526 50.61482648 13.39103594 52.0747052 13.39188385 53.5345726 C13.40331921 63.35951443 14.06420556 71.8272416 20.1875 79.875 C27.65427836 85.51656587 34.68071427 87.17857981 44 86 C50.05096985 84.56172447 55.01494278 82.23266298 58.71635437 77.10250854 C63.786722 68.7976532 63.46987868 59.22062671 63.51171875 49.8046875 C63.528599 48.36164863 63.54675364 46.91862415 63.56611633 45.47561646 C63.61326008 41.7110647 63.64329814 37.94657135 63.66955566 34.18182373 C63.69954293 30.32682768 63.74600992 26.47203229 63.79101562 22.6171875 C63.87664252 15.07820832 63.94263953 7.53925695 64 0 C67.96 0 71.92 0 76 0 C76.06979351 8.82373549 76.12295926 17.6473746 76.15543652 26.47132683 C76.17103121 30.56952606 76.19215479 34.66753516 76.22631836 38.765625 C76.25913478 42.72732513 76.2768995 46.68884343 76.28463173 50.6506691 C76.29013556 52.15520206 76.30088221 53.65972611 76.31719017 55.16418076 C76.45940529 68.83922614 74.97482283 78.55606994 65.40625 88.6875 C57.07621726 96.54602145 46.4740537 98.33567141 35.41015625 98.2109375 C25.65852625 97.60774389 16.18842589 94.18842589 9.18359375 87.18359375 C2.67243842 79.10584466 -0.13312471 69.62422461 -0.11352539 59.3737793 C-0.11367142 58.72931351 -0.11381744 58.08484772 -0.1139679 57.42085266 C-0.11327506 55.30527296 -0.10551231 53.18978294 -0.09765625 51.07421875 C-0.09578983 49.60162911 -0.09436699 48.12903885 -0.09336853 46.65644836 C-0.08956096 42.79147612 -0.07974579 38.9265418 -0.06866455 35.06158447 C-0.0584125 31.11332716 -0.05386279 27.16506368 -0.04882812 23.21679688 C-0.03812187 15.47784534 -0.02053941 7.73893283 0 0 Z " fill="#A80202" transform="translate(2294,1253)"/>
<path d="M0 0 C20.46 0 40.92 0 62 0 C62 3.3 62 6.6 62 10 C45.5 10 29 10 12 10 C12 20.56 12 31.12 12 42 C27.51 42 43.02 42 59 42 C59 45.3 59 48.6 59 52 C43.49 52 27.98 52 12 52 C12 63.22 12 74.44 12 86 C28.83 86 45.66 86 63 86 C63 89.3 63 92.6 63 96 C42.21 96 21.42 96 0 96 C0 64.32 0 32.64 0 0 Z " fill="#A80202" transform="translate(3896,1253)"/>
<path d="M0 0 C20.46 0 40.92 0 62 0 C62 3.3 62 6.6 62 10 C45.5 10 29 10 12 10 C12 20.56 12 31.12 12 42 C27.51 42 43.02 42 59 42 C59 45.3 59 48.6 59 52 C43.49 52 27.98 52 12 52 C12 63.22 12 74.44 12 86 C28.83 86 45.66 86 63 86 C63 89.3 63 92.6 63 96 C42.21 96 21.42 96 0 96 C0 64.32 0 32.64 0 0 Z " fill="#A80202" transform="translate(3238,1253)"/>
<path d="M0 0 C53.92857143 0 53.92857143 0 63.9296875 9.65625 C69.5727444 16.0446163 70.33610437 23.84185345 70.203125 32.09765625 C69.62869805 40.3053337 67.0280585 46.13235523 61.31640625 52.0859375 C53.96955164 58.15669426 44.85873949 59.13577992 35.6328125 59.09765625 C34.38902832 59.09515869 33.14524414 59.09266113 31.86376953 59.09008789 C29.51807861 59.07643188 29.51807861 59.07643188 27.125 59.0625 C19.638125 59.0315625 19.638125 59.0315625 12 59 C12 71.21 12 83.42 12 96 C8.04 96 4.08 96 0 96 C0 64.32 0 32.64 0 0 Z M12 10 C12 22.87 12 35.74 12 49 C16.434375 49.061875 20.86875 49.12375 25.4375 49.1875 C26.81736084 49.21481201 28.19722168 49.24212402 29.61889648 49.27026367 C37.96705745 49.32638881 44.73621874 48.68803601 51.875 44.1875 C56.29782115 39.63459587 57.22263646 35.80786699 57.4375 29.5625 C57.25782012 22.39163925 55.81989752 18.74568969 50.625 13.6875 C45.50082227 10.39338575 40.87248182 9.75322665 34.8515625 9.8046875 C33.04679443 9.81218018 33.04679443 9.81218018 31.20556641 9.81982422 C29.69397949 9.83803223 28.18239258 9.85624023 26.625 9.875 C21.79875 9.91625 16.9725 9.9575 12 10 Z " fill="#A80202" transform="translate(1745,1253)"/>
<path d="M0 0 C2.15799146 -0.3000578 4.32833952 -0.51185099 6.5 -0.6875 C7.7065625 -0.81511719 8.913125 -0.94273438 10.15625 -1.07421875 C16.44011321 0.68194221 18.61246641 5.68762478 22 11 C22.76896336 12.1479965 23.54183748 13.29338194 24.31835938 14.4362793 C26.73842091 18.00286938 29.1209842 21.59345245 31.5 25.1875 C32.33050962 26.43829684 33.16123766 27.68894869 33.9921875 28.93945312 C35.9973017 31.95797516 37.99949044 34.9784237 40 38 C44.45491204 31.93045871 48.85729701 25.84958855 53 19.5625 C53.42313477 18.93851318 53.84626953 18.31452637 54.28222656 17.67163086 C56.32743785 14.6388769 58.23990717 11.62514503 59.921875 8.375 C61.74132019 5.07822751 63.21002451 2.53592143 66 0 C70.82423856 -0.98677607 75.15274353 -0.735258 80 0 C78.54805252 4.17243856 76.48758796 7.32365163 73.875 10.875 C72.9840522 12.09777605 72.09486495 13.32183599 71.20703125 14.546875 C70.70768066 15.23587891 70.20833008 15.92488281 69.69384766 16.63476562 C65.54131808 22.43322434 61.50794856 28.3166038 57.44677734 34.17919922 C56.78500488 35.1332666 56.12323242 36.08733398 55.44140625 37.0703125 C54.85045166 37.92383301 54.25949707 38.77735352 53.65063477 39.65673828 C52 42 52 42 50.15991211 43.99560547 C48.70062971 45.98353756 48.70062971 45.98353756 49.59204102 48.4128418 C51.10465985 51.19231498 52.73479754 53.78584042 54.52734375 56.39453125 C55.23246094 57.42553955 55.93757813 58.45654785 56.6640625 59.51879883 C57.03563477 60.05711334 57.40720703 60.59542786 57.79003906 61.15005493 C58.94661964 62.82571256 60.09703079 64.50545943 61.24609375 66.1862793 C64.65155452 71.16194758 68.07868191 76.12208899 71.53515625 81.0625 C72.04377197 81.79235107 72.5523877 82.52220215 73.07641602 83.27416992 C73.99960969 84.5960262 74.92817481 85.91415348 75.86303711 87.2277832 C77.85525055 90.07758505 79.51699801 92.5068606 80 96 C75.00827785 97.1149394 70.96157177 97.36941425 66 96 C61.68597601 92.2177659 59.21970177 86.62209262 56.51708984 81.65429688 C53.72896451 76.77619924 50.48561151 72.19541873 47.3125 67.5625 C46.09489028 65.77578326 44.88222244 63.98568321 43.67578125 62.19140625 C42.9010144 61.04973999 42.9010144 61.04973999 42.1105957 59.88500977 C41 58 41 58 41 56 C40.34 56 39.68 56 39 56 C38.75765625 56.70125 38.5153125 57.4025 38.265625 58.125 C36.52309652 62.08333629 34.01588844 65.30855159 31.43261719 68.76025391 C28.61631956 72.58629727 26.09848335 76.47156246 23.71875 80.5859375 C15.21576162 94.96268485 15.21576162 94.96268485 11.00683594 96.93310547 C6.84754258 97.77282708 3.02855401 97.15713785 -1 96 C2.05170667 90.05797499 5.57489423 84.716207 9.5546875 79.359375 C12.68514716 75.10577333 15.64786045 70.73656025 18.625 66.375 C19.16318359 65.58754395 19.70136719 64.80008789 20.25585938 63.98876953 C21.31247978 62.43908116 22.3630367 60.88523965 23.40722656 59.32714844 C24.50511179 57.72306475 25.63994078 56.14385833 26.80371094 54.58691406 C27.3712207 53.80799805 27.93873047 53.02908203 28.5234375 52.2265625 C29.04599121 51.53385254 29.56854492 50.84114258 30.10693359 50.12744141 C31.27305215 47.96389801 31.27305215 47.96389801 30.29589844 45.44824219 C29.20128202 43.38026679 28.11107871 41.49360405 26.7421875 39.6015625 C26.28884033 38.96814941 25.83549316 38.33473633 25.3684082 37.68212891 C24.8755835 37.00327637 24.38275879 36.32442383 23.875 35.625 C22.80260261 34.12555955 21.73103563 32.62552496 20.66015625 31.125 C20.0789502 30.31289062 19.49774414 29.50078125 18.89892578 28.6640625 C15.34046815 23.67179075 11.82465096 18.64990765 8.3125 13.625 C7.60528809 12.62033691 6.89807617 11.61567383 6.16943359 10.58056641 C5.51152832 9.63874512 4.85362305 8.69692383 4.17578125 7.7265625 C3.58708252 6.88689941 2.99838379 6.04723633 2.3918457 5.18212891 C1 3 1 3 0 0 Z " fill="#A80202" transform="translate(2998,1253)"/>
<path d="M0 0 C20.46 0 40.92 0 62 0 C62 3.63 62 7.26 62 11 C45.5 11 29 11 12 11 C12 21.56 12 32.12 12 43 C27.51 43 43.02 43 59 43 C59 46.3 59 49.6 59 53 C43.49 53 27.98 53 12 53 C12 67.19 12 81.38 12 96 C8.04 96 4.08 96 0 96 C0 64.32 0 32.64 0 0 Z " fill="#A80202" transform="translate(2741,1253)"/>
<path d="M0 0 C24.09 0 48.18 0 73 0 C73 3.63 73 7.26 73 11 C63.1 11 53.2 11 43 11 C43 39.05 43 67.1 43 96 C38.71 96 34.42 96 30 96 C30 67.95 30 39.9 30 11 C20.1 11 10.2 11 0 11 C0 7.37 0 3.74 0 0 Z " fill="#A80202" transform="translate(2074,1253)"/>
<path d="M0 0 C4.29 0 8.58 0 13 0 C13 28.38 13 56.76 13 86 C28.18 86 43.36 86 59 86 C59 89.3 59 92.6 59 96 C39.53 96 20.06 96 0 96 C0 64.32 0 32.64 0 0 Z " fill="#A80202" transform="translate(3440,1253)"/>
<path d="M0 0 C3.96 0 7.92 0 12 0 C12 28.38 12 56.76 12 86 C27.18 86 42.36 86 58 86 C58 89.3 58 92.6 58 96 C38.86 96 19.72 96 0 96 C0 64.32 0 32.64 0 0 Z " fill="#A80202" transform="translate(3344,1253)"/>
</svg>
